HIERARCHY
ROOT Hips
{
  OFFSET 86.0254 94.8051 24.2169
  CHANNELS 6 Xposition Yposition Zposition Zrotation Xrotation Yrotation
  JOINT spine
  {
    OFFSET 0 7.80059 0.448573
    CHANNELS 3 Zrotation Xrotation Yrotation
    JOINT spine1
    {
      OFFSET 0 10.1364 0
      CHANNELS 3 Zrotation Xrotation Yrotation
      JOINT spine2
      {
        OFFSET 0 9.71251 0
        CHANNELS 3 Zrotation Xrotation Yrotation
        JOINT Neck
        {
          OFFSET 0 24.9361 1.18887
          CHANNELS 3 Zrotation Xrotation Yrotation
          JOINT Head
          {
            OFFSET 0 7.53384 0
            CHANNELS 3 Zrotation Xrotation Yrotation
            End Site
            {
              OFFSET 0 18.2361 -6.01402
            }
          }
        }
        JOINT RightShoulder
        {
          OFFSET -4.08965 10.4888 -0.569457
          CHANNELS 3 Zrotation Xrotation Yrotation
          JOINT RightArm
          {
            OFFSET 0 13.757 0
            CHANNELS 3 Zrotation Xrotation Yrotation
            JOINT RightArmRoll
            {
              OFFSET 0 6.94478 0
              CHANNELS 3 Zrotation Xrotation Yrotation
              JOINT RightForeArm
              {
                OFFSET 0 20.2277 0
                CHANNELS 3 Zrotation Xrotation Yrotation
                JOINT RightForeArmRoll
                {
                  OFFSET 0 7.79312 0
                  CHANNELS 3 Zrotation Xrotation Yrotation
                  JOINT RightHand
                  {
                    OFFSET 0 15.6391 0
                    CHANNELS 3 Zrotation Xrotation Yrotation
                    End Site
                    {
                      OFFSET 0 0 0
                    }
                  }
                }
              }
            }
          }
        }
        JOINT LeftShoulder
        {
          OFFSET 4.08965 10.4888 -0.569457
          CHANNELS 3 Zrotation Xrotation Yrotation
          JOINT LeftArm
          {
            OFFSET 0 13.757 0
            CHANNELS 3 Zrotation Xrotation Yrotation
            JOINT LeftArmRoll
            {
              OFFSET 0 6.94478 0
              CHANNELS 3 Zrotation Xrotation Yrotation
              JOINT LeftForeArm
              {
                OFFSET 0 20.2277 0
                CHANNELS 3 Zrotation Xrotation Yrotation
                JOINT LeftForeArmRoll
                {
                  OFFSET 0 7.79312 0
                  CHANNELS 3 Zrotation Xrotation Yrotation
                  JOINT LeftHand
                  {
                    OFFSET 0 15.6391 0
                    CHANNELS 3 Zrotation Xrotation Yrotation
                    End Site
                    {
                      OFFSET 0 0 0
                    }
                  }
                }
              }
            }
          }
        }
      }
    }
  }
  JOINT RightUpLeg
  {
    OFFSET -6.91416 -1.26788 -1.06358
    CHANNELS 3 Zrotation Xrotation Yrotation
    JOINT RightUpLegRoll
    {
      OFFSET 0 18.3378 0
      CHANNELS 3 Zrotation Xrotation Yrotation
      JOINT RightLeg
      {
        OFFSET 0 -22.7085 0
        CHANNELS 3 Zrotation Xrotation Yrotation
        JOINT RightLegRoll
        {
          OFFSET 0 22.7828 0
          CHANNELS 3 Zrotation Xrotation Yrotation
          JOINT RightFoot
          {
            OFFSET 0 18.9629 0
            CHANNELS 3 Zrotation Xrotation Yrotation
            JOINT RightToeBase
            {
              OFFSET 0 15.852 0
              CHANNELS 3 Zrotation Xrotation Yrotation
              End Site
              {
                OFFSET 0.00671906 7.67701 -0.884892
              }
            }
          }
        }
      }
    }
  }
  JOINT LeftUpLeg
  {
    OFFSET 6.91416 -1.26788 -1.06358
    CHANNELS 3 Zrotation Xrotation Yrotation
    JOINT LeftUpLegRoll
    {
      OFFSET 0 18.3379 0
      CHANNELS 3 Zrotation Xrotation Yrotation
      JOINT LeftLeg
      {
        OFFSET 0 22.7084 0
        CHANNELS 3 Zrotation Xrotation Yrotation
        JOINT LeftLegRoll
        {
          OFFSET 0 22.9934 0
          CHANNELS 3 Zrotation Xrotation Yrotation
          JOINT LeftFoot
          {
            OFFSET 0 18.7522 0
            CHANNELS 3 Zrotation Xrotation Yrotation
            JOINT LeftToeBase
            {
              OFFSET 0 15.852 0
              CHANNELS 3 Zrotation Xrotation Yrotation
              End Site
              {
                OFFSET -0.030112 7.67701 -0.884893
              }
            }
          }
        }
      }
    }
  }
}
MOTION
Frames: 9
Frame Time: 0.00208333
78.1457 93.5213 21.4333 3.03789 2.47007 51.7104 -1.01002 -1.79385 1.14488 -1.9933 0.393977 2.38886 -2.02307 2.03787 2.42295 -19.5787 9.12531 9.29834 19.0172 -7.75486 7.91595 43.0526 -4.61393 -1.64945 -163.427 78.0658 -81.3293 3.27259e-006 -2.38949e-005 8.67255e-006 161.348 70.8649 -160.167 -1.37388e-006 1.97678e-005 -3 8.02936 -4.95118 0.697348 -74.6544 -4.54825 3.84628 -81.8939 19.062 -13.945 2.6631e-005 8.21229e-007 1.49955e-006 -7.011 28.5785 3.44156 -1.13793e-005 -3.31444e-006 3 -8.02919 -4.9514 -0.697654 169.04 -9.58453 5.5826 180 7.01527e-015 178.84 179.316 17.5634 179.684 -6.50742e-006 2.67064e-007 1.05153 -27.6345 75.7664 29.4619 7.83318 30.2268 3.1451 178.026 13.7187 6.59345 4.54188e-006 -4.6773e-006 -1.08365 -7.64536 -12.9958 -0.710203 4.359e-006 -6.79981e-007 -0.123888 24.7507 70.9765 -22.6952 -8.1397 25.2325 3.4891 
78.2268 93.5173 21.4277 3.00431 2.5552 51.9616 -1.01734 -1.77532 1.15652 -2.00811 0.430666 2.41312 -2.03816 2.07454 2.44751 -20.1013 8.5258 9.08735 19.6221 -7.44535 7.73888 42.4201 -4.5882 -1.57342 -161.285 77.5775 -82.459 3.27259e-006 -2.38949e-005 8.67255e-006 160.393 71.4005 -159.06 -1.37388e-006 1.97678e-005 -3 8.02936 -4.95118 0.697348 -74.9174 -4.60838 3.88858 -81.9725 19.2774 -13.8856 2.6631e-005 8.21229e-007 1.49955e-006 -6.98267 28.6717 3.44185 -1.13793e-005 -3.31444e-006 3 -8.02919 -4.9514 -0.697654 169.04 -9.60306 5.57888 180 7.01527e-015 178.841 179.322 17.5513 179.68 -6.50742e-006 2.67064e-007 1.04791 -27.555 75.7263 29.3802 7.82355 30.2724 3.21552 177.918 13.77 6.67547 4.54188e-006 -4.6773e-006 -1.08564 -7.64882 -12.983 -0.711572 4.359e-006 -6.79981e-007 -0.122189 24.8687 71.0302 -22.7664 -8.1397 25.2325 3.4891 
78.2889 93.5205 21.422 2.96841 2.63854 52.2109 -1.02457 -1.75682 1.16812 -2.02277 0.467298 2.43733 -2.0531 2.11115 2.47202 -20.61 7.9308 8.87292 20.2093 -7.1364 7.55899 41.806 -4.56346 -1.49925 -159.282 77.0948 -83.4708 3.27259e-006 -2.38949e-005 8.67255e-006 159.388 71.9478 -157.916 -1.37388e-006 1.97678e-005 -3 8.02936 -4.95118 0.697348 -75.1705 -4.67048 3.93088 -82.0552 19.4908 -13.8183 2.6631e-005 8.21229e-007 1.49955e-006 -6.95895 28.7549 3.44253 -1.13793e-005 -3.31444e-006 3 -8.02919 -4.9514 -0.697654 169.044 -9.62056 5.57313 180 7.01527e-015 178.841 179.329 17.5382 179.676 -6.50742e-006 2.67064e-007 1.04409 -27.4728 75.6846 29.2956 7.81374 30.3203 3.28497 177.814 13.8218 6.75406 4.54188e-006 -4.6773e-006 -1.08753 -7.65291 -12.97 -0.712982 4.359e-006 -6.79981e-007 -0.120443 24.984 71.0826 -22.8364 -8.1397 25.2325 3.4891 
78.3601 93.5201 21.4125 2.93114 2.71968 52.4586 -1.03185 -1.73826 1.17958 -2.03754 0.504037 2.46126 -2.06813 2.14786 2.49624 -21.1024 7.34257 8.65594 20.7762 -6.82946 7.37682 41.214 -4.53954 -1.42725 -157.403 76.6213 -84.3891 3.27259e-006 -2.38949e-005 8.67255e-006 158.327 72.5106 -156.732 -1.37388e-006 1.97678e-005 -3 8.02936 -4.95118 0.697348 -75.4128 -4.73469 3.97322 -82.1424 19.701 -13.742 2.6631e-005 8.21229e-007 1.49955e-006 -6.94102 28.8269 3.4439 -1.13793e-005 -3.31444e-006 3 -8.02919 -4.9514 -0.697654 169.05 -9.6382 5.56619 180 7.01527e-015 178.841 179.336 17.5238 179.672 -6.50742e-006 2.67064e-007 1.04006 -27.3878 75.6411 29.2079 7.80376 30.371 3.3531 177.714 13.8732 6.83011 4.54188e-006 -4.6773e-006 -1.08934 -7.65722 -12.957 -0.714374 4.359e-006 -6.79981e-007 -0.118657 25.0962 71.1337 -22.9051 -8.1397 25.2325 3.4891 
78.3987 93.5139 21.378 2.89347 2.79822 52.7048 -1.03929 -1.71957 1.19075 -2.05263 0.541046 2.48464 -2.0835 2.18485 2.51992 -21.5764 6.7634 8.43726 21.3204 -6.52598 7.19292 40.6476 -4.51626 -1.35776 -155.637 76.1606 -85.2354 3.27259e-006 -2.38949e-005 8.67255e-006 157.203 73.0928 -155.502 -1.37388e-006 1.97678e-005 -3 8.02936 -4.95118 0.697348 -75.6435 -4.80115 4.01562 -82.2345 19.9067 -13.6552 2.6631e-005 8.21229e-007 1.49955e-006 -6.93002 28.8868 3.44624 -1.13793e-005 -3.31444e-006 3 -8.02919 -4.9514 -0.697654 169.058 -9.65719 5.55889 180 7.01527e-015 178.841 179.343 17.5078 179.668 -6.50742e-006 2.67064e-007 1.0358 -27.2997 75.5956 29.1171 7.79359 30.425 3.41957 177.616 13.9232 6.90446 4.54188e-006 -4.6773e-006 -1.09108 -7.66137 -12.9439 -0.715687 4.359e-006 -6.79981e-007 -0.116838 25.2051 71.1836 -22.9723 -8.1397 25.2325 3.4891 
78.4676 93.515 21.3726 2.85636 2.87375 52.9499 -1.047 -1.70066 1.20151 -2.06829 0.578488 2.50724 -2.09943 2.22227 2.54283 -22.0296 6.19559 8.21773 21.8395 -6.22742 7.00784 40.1104 -4.49344 -1.29111 -153.972 75.7159 -86.0289 3.27259e-006 -2.38949e-005 8.67255e-006 156.006 73.6981 -154.22 -1.37388e-006 1.97678e-005 -3 8.02936 -4.95118 0.697348 -75.862 -4.86999 4.05813 -82.3316 20.1068 -13.5567 2.6631e-005 8.21229e-007 1.49955e-006 -6.92713 28.9334 3.44983 -1.13793e-005 -3.31444e-006 3 -8.02919 -4.9514 -0.697654 169.066 -9.67871 5.55208 180 7.01527e-015 178.84 179.349 17.4899 179.665 -6.50742e-006 2.67064e-007 1.03128 -27.2083 75.548 29.0227 7.78324 30.4827 3.48402 177.52 13.971 6.97797 4.54188e-006 -4.6773e-006 -1.09278 -7.66494 -12.9308 -0.716861 4.359e-006 -6.79981e-007 -0.114991 25.3102 71.2323 -23.038 -8.1397 25.2325 3.4891 
78.5392 93.5223 21.3836 2.82079 2.94589 53.194 -1.05511 -1.68145 1.21173 -2.08476 0.616527 2.52881 -2.11617 2.26029 2.56471 -22.4594 5.64146 7.99817 22.3307 -5.93523 6.8221 39.6062 -4.47092 -1.22761 -152.402 75.2902 -86.7866 3.27259e-006 -2.38949e-005 8.67255e-006 154.723 74.3305 -152.874 -1.37388e-006 1.97678e-005 -3 8.02936 -4.95118 0.697348 -76.0672 -4.94134 4.10078 -82.4341 20.3 -13.445 2.6631e-005 8.21229e-007 1.49955e-006 -6.93349 28.9658 3.45496 -1.13793e-005 -3.31444e-006 3 -8.02919 -4.9514 -0.697654 169.074 -9.70395 5.54659 180 7.01527e-015 178.84 179.354 17.4699 179.661 -6.50742e-006 2.67064e-007 1.02651 -27.1134 75.4981 28.9247 7.77271 30.5446 3.54612 177.425 14.0155 7.05151 4.54188e-006 -4.6773e-006 -1.09445 -7.66754 -12.9177 -0.717838 4.359e-006 -6.79981e-007 -0.113123 25.4112 71.2795 -23.1019 -8.1397 25.2325 3.4891 
78.6095 93.5175 21.3522 2.78774 3.01426 53.4374 -1.06372 -1.66186 1.22128 -2.10227 0.655327 2.5491 -2.13394 2.29906 2.58534 -22.8634 5.10334 7.77938 22.7917 -5.65089 6.63624 39.1385 -4.44852 -1.1676 -150.92 74.8865 -87.524 3.27259e-006 -2.38949e-005 8.67255e-006 153.339 74.9934 -151.451 -1.37388e-006 1.97678e-005 -3 8.02936 -4.95118 0.697348 -76.2586 -5.01534 4.14359 -82.5424 20.4851 -13.3189 2.6631e-005 8.21229e-007 1.49955e-006 -6.95026 28.9829 3.46192 -1.13793e-005 -3.31444e-006 3 -8.02919 -4.9514 -0.697654 169.081 -9.73409 5.54327 180 7.01527e-015 178.839 179.357 17.4474 179.658 -6.50742e-006 2.67064e-007 1.02144 -27.0149 75.4459 28.8229 7.762 30.6111 3.60553 177.329 14.056 7.12591 4.54188e-006 -4.6773e-006 -1.09609 -7.66878 -12.9047 -0.718555 4.359e-006 -6.79981e-007 -0.11124 25.5077 71.3254 -23.164 -8.1397 25.2325 3.4891 
78.6955 93.5167 21.3985 2.75563 3.07949 53.6799 -1.07289 -1.64183 1.23046 -2.12088 0.694983 2.56875 -2.15283 2.3387 2.60533 -23.2384 4.57609 7.55621 23.2196 -5.36919 6.4464 38.71 -4.42564 -1.11021 -149.533 74.5046 -88.2235 3.27259e-006 -2.38949e-005 8.67255e-006 151.847 75.682 -149.94 -1.37388e-006 1.97678e-005 -3 8.02936 -4.95118 0.697348 -76.4342 -5.09289 4.18674 -82.6542 20.6683 -13.1727 2.6631e-005 8.21229e-007 1.49955e-006 -6.98135 28.9755 3.47099 -1.13793e-005 -3.31444e-006 3 -8.02919 -4.9514 -0.697654 169.089 -9.76814 5.53989 180 7.01527e-015 178.838 179.361 17.4218 179.655 -6.50742e-006 2.67064e-007 1.01604 -26.9118 75.3906 28.7162 7.75099 30.6809 3.66409 177.236 14.0936 7.19862 4.54188e-006 -4.6773e-006 -1.09767 -7.66994 -12.8913 -0.719174 4.359e-006 -6.79981e-007 -0.109257 25.5999 71.37 -23.2243 -8.1397 25.2325 3.4891 
